<?xml version="1.0" encoding="UTF-8"?>
<svg id="Calque_2" data-name="Calque 2" xmlns="http://www.w3.org/2000/svg" viewBox="0 0 27.89 30.4">
  <defs>
    <style>
      .cls-1 {
        fill: #142f49;
      }

      .cls-2 {
        fill: #7295aa;
      }
    </style>
  </defs>
  <g id="Calque_1-2" data-name="Calque 1">
    <g>
      <path class="cls-1" d="M27.89,6.25v20.4c0,1.03-.42,1.96-1.1,2.64-.68.68-1.61,1.1-2.65,1.1H4.48c-2.46,0-4.48-2.02-4.48-4.48V6.25c0-1.03.42-1.96,1.1-2.65.68-.68,1.61-1.1,2.65-1.1h20.4c1.03,0,1.96.42,2.65,1.1.68.68,1.1,1.62,1.1,2.65Z"/>
      <rect class="cls-2" x="4.62" y="0" width="18.64" height="5.01" rx="2.5" ry="2.5"/>
      <path class="cls-2" d="M8.42,15.76v3.24c0,.16-.08.31-.21.42-.13.11-.31.17-.51.17h-3.8c-.48,0-.86-.32-.86-.71v-3.12c0-.16.08-.31.21-.42.13-.11.31-.17.51-.17h3.94c.2,0,.38.07.51.17.13.11.21.26.21.42Z"/>
      <path class="cls-2" d="M16.64,15.76v3.24c0,.16-.08.31-.21.42-.13.11-.31.17-.51.17h-3.8c-.48,0-.86-.32-.86-.71v-3.12c0-.16.08-.31.21-.42.13-.11.31-.17.51-.17h3.94c.2,0,.38.07.51.17.13.11.21.26.21.42Z"/>
      <path class="cls-2" d="M24.85,15.76v3.24c0,.16-.08.31-.21.42-.13.11-.31.17-.51.17h-3.8c-.48,0-.86-.32-.86-.71v-3.12c0-.16.08-.31.21-.42.13-.11.31-.17.51-.17h3.94c.2,0,.38.07.51.17.13.11.21.26.21.42Z"/>
      <path class="cls-2" d="M8.42,22.05v3.24c0,.16-.08.31-.21.42-.13.11-.31.17-.51.17h-3.8c-.48,0-.86-.32-.86-.71v-3.12c0-.16.08-.31.21-.42.13-.11.31-.17.51-.17h3.94c.2,0,.38.07.51.17.13.11.21.26.21.42Z"/>
      <path class="cls-2" d="M16.64,22.05v3.24c0,.16-.08.31-.21.42-.13.11-.31.17-.51.17h-3.8c-.48,0-.86-.32-.86-.71v-3.12c0-.16.08-.31.21-.42.13-.11.31-.17.51-.17h3.94c.2,0,.38.07.51.17.13.11.21.26.21.42Z"/>
      <path class="cls-2" d="M24.85,22.05v3.24c0,.16-.08.31-.21.42-.13.11-.31.17-.51.17h-3.8c-.48,0-.86-.32-.86-.71v-3.12c0-.16.08-.31.21-.42.13-.11.31-.17.51-.17h3.94c.2,0,.38.07.51.17.13.11.21.26.21.42Z"/>
    </g>
  </g>
</svg>