<svg width="32" height="32" viewBox="0 0 32 32" fill="none" xmlns="http://www.w3.org/2000/svg">
<g clip-path="url(#clip0_1218_2160)">
<path d="M17.0873 9.23847L17.3823 10.2484C17.447 10.472 17.6141 10.6536 17.8339 10.7376L18.4555 10.9762C18.6527 11.0527 18.874 11.0407 19.0621 10.9462L20.1158 10.4165C20.4003 10.2739 20.7435 10.3249 20.9738 10.5455C21.311 10.8696 21.737 11.3033 21.758 11.3498C21.7851 11.4084 21.8122 11.4579 21.7821 11.5239L21.0461 12.8475C20.9332 13.0501 20.9211 13.2932 21.0129 13.5062L21.3456 14.2731C21.4314 14.4726 21.6 14.6242 21.8077 14.6902L22.8132 15.0084C23.1188 15.1044 23.3295 15.385 23.337 15.7047L23.3521 16.3589C23.3596 16.6936 23.1444 16.9907 22.8237 17.0897L21.7791 17.4124C21.5654 17.4784 21.3908 17.6375 21.3065 17.8446L21.0144 18.5559C20.9301 18.7629 20.9422 18.997 21.0491 19.1936L21.5082 20.0385C21.6647 20.3266 21.615 20.6837 21.3847 20.9178L20.9256 21.3845C20.6983 21.6156 20.3461 21.6757 20.0541 21.5301L19.1254 21.0664C18.9267 20.9674 18.6949 20.9614 18.4917 21.0484L17.7616 21.3635C17.5629 21.4491 17.4109 21.6156 17.3447 21.8212L17.0165 22.8446C16.9172 23.1523 16.6327 23.3624 16.3076 23.3639L15.6648 23.3684C15.3367 23.3714 15.0432 23.1598 14.9438 22.8476L14.6006 21.7732C14.5329 21.5601 14.3718 21.3875 14.1626 21.305L13.4581 21.0259C13.2564 20.9463 13.0307 20.9569 12.838 21.0559L11.9002 21.5391C11.6127 21.6877 11.262 21.6336 11.0317 21.4085L10.538 20.9253C10.2926 20.6852 10.243 20.3086 10.4161 20.013C10.6479 19.6183 10.9595 19.1336 11.0076 18.9745C11.0949 18.6924 10.7999 18.1852 10.6238 17.78C10.538 17.5819 10.3709 17.4304 10.1647 17.3644L9.16672 17.0462C8.85814 16.9472 8.64741 16.6636 8.6459 16.3394L8.64139 15.6987C8.63838 15.37 8.85062 15.0789 9.16521 14.9799L10.2294 14.6437C10.4522 14.5732 10.6298 14.4036 10.7096 14.183L10.961 13.4867C11.0302 13.2962 11.0182 13.0846 10.9278 12.903L10.4567 11.9501C10.3152 11.665 10.3709 11.3228 10.5937 11.0962L11.0106 10.6716C11.2349 10.442 11.5826 10.3819 11.8716 10.52L12.8696 10.9987C13.0728 11.0962 13.3091 11.0977 13.5138 11.0017L14.2183 10.6716C14.411 10.5815 14.557 10.4135 14.6172 10.2094L14.9122 9.23096C15.007 8.91433 15.2991 8.69824 15.6302 8.69824H16.3738C16.708 8.69824 17 8.91733 17.0933 9.23697L17.0873 9.23847ZM15.8274 12.2247C10.9263 12.4078 11.1837 19.9409 16.1164 19.7819C21.0581 19.6213 20.8609 12.0371 15.8274 12.2247Z" fill="#132E49"/>
<path d="M26.0782 19.824C24.6512 23.6446 21.0146 26.3772 16.9234 26.7118C16.7954 26.7223 16.6931 26.8199 16.6795 26.9459L16.5922 27.7638C16.5711 27.9649 16.3408 28.0684 16.1752 27.9529L13.7834 26.2827C13.6179 26.1671 13.6374 25.915 13.8211 25.828L16.821 24.3874C16.955 24.3679 16.9414 24.3829 16.9384 24.5044C16.9339 24.791 16.8662 25.1407 16.818 25.4633C16.7924 25.6344 16.9369 25.7814 17.11 25.7649C20.7467 25.4228 23.8565 22.8927 25.2293 19.5539C25.2789 19.4323 25.4069 19.3648 25.5348 19.3948L25.8855 19.4773C26.0406 19.5133 26.1309 19.6769 26.0752 19.824H26.0782Z" fill="#EA8B49"/>
<path d="M27.9506 15.7766L26.2135 18.2257C26.0946 18.3937 25.8372 18.3682 25.7529 18.1806L24.5517 15.517C24.4705 15.3385 24.6059 15.1374 24.8016 15.1419L25.5572 15.1614C25.7198 15.1659 25.8508 15.0248 25.8297 14.8643C25.3826 11.4218 23.1564 8.30503 19.9201 6.98748C19.7862 6.93346 19.7169 6.7849 19.7666 6.64984L19.8975 6.28969C19.9487 6.15013 20.1068 6.0766 20.2452 6.13212C23.8578 7.57573 26.3926 11.1727 26.7419 15.0323C26.7539 15.1599 26.8517 15.2604 26.9782 15.2739L27.7594 15.355C27.9626 15.376 28.0665 15.6071 27.9491 15.7721L27.9506 15.7766Z" fill="#132E49"/>
<path d="M18.1215 6.29423L15.5491 7.4212C15.3715 7.49923 15.1728 7.36568 15.1788 7.17209L15.2029 6.49231C15.2089 6.33475 15.0734 6.20419 14.9154 6.2207C11.5542 6.57184 8.47448 8.73575 7.08815 11.806C7.02945 11.9366 6.87892 11.9996 6.74646 11.9441L6.3822 11.7925C6.24672 11.7355 6.182 11.5794 6.2407 11.4444C7.80013 7.96292 11.2757 5.63696 15.0719 5.2693C15.1969 5.2573 15.2962 5.16126 15.3098 5.03821L15.3986 4.23537C15.4211 4.03279 15.6575 3.93074 15.82 4.0553L18.1742 5.84554C18.3338 5.96709 18.3037 6.2147 18.12 6.29573L18.1215 6.29423Z" fill="#EA8B49"/>
<path d="M7.16183 16.9188L6.46039 16.8452C6.2918 16.8272 6.1473 16.9713 6.16837 17.1378C6.6079 20.5263 8.73781 23.457 11.822 24.9366C11.95 24.9981 12.0087 25.1482 11.953 25.2772C11.9048 25.3883 11.8281 25.5083 11.7694 25.6224C11.7046 25.7484 11.5541 25.807 11.4247 25.7469C7.97315 24.1353 5.58886 20.7499 5.25168 16.9458C5.24115 16.8197 5.14331 16.7177 5.01536 16.7042L4.23866 16.6231C4.03545 16.6021 3.93159 16.3695 4.0505 16.2045L5.78002 13.826C5.90044 13.6609 6.15483 13.6879 6.23761 13.874L7.43127 16.5481C7.51406 16.7342 7.36353 16.9398 7.16032 16.9188H7.16183Z" fill="#132E49"/>
</g>
<defs>
<clipPath id="clip0_1218_2160">
<path d="M0 4C0 1.79086 1.79086 0 4 0H28C30.2091 0 32 1.79086 32 4V28C32 30.2091 30.2091 32 28 32H4C1.79086 32 0 30.2091 0 28V4Z" fill="white"/>
</clipPath>
</defs>
</svg>
