<svg width="32" height="32" viewBox="0 0 32 32" fill="none" xmlns="http://www.w3.org/2000/svg">
<g clip-path="url(#clip0_1218_2186)">
<path d="M19.4413 10.3329C19.752 13.3371 18.1828 16.0154 15.7592 17.3273L6.26662 21.9463C5.81607 22.1636 5.28784 21.8376 5.28784 21.333V11.0936C5.28784 6.9094 8.90776 3.57132 13.188 4.04486C16.4739 4.40196 19.1072 7.05689 19.449 10.3406L19.4413 10.3329Z" fill="#132E49"/>
<path d="M13.3046 17.4283C13.1958 20.091 14.6407 22.4276 16.8157 23.5998L25.7335 27.9316C26.184 28.1489 26.7123 27.8229 26.7123 27.3183V17.7077C26.7123 13.8651 23.4807 10.7832 19.5889 11.016C16.1865 11.2179 13.4444 14.0281 13.3046 17.4283Z" fill="#EA8B49"/>
</g>
<defs>
<clipPath id="clip0_1218_2186">
<path d="M0 4C0 1.79086 1.79086 0 4 0H28C30.2091 0 32 1.79086 32 4V28C32 30.2091 30.2091 32 28 32H4C1.79086 32 0 30.2091 0 28V4Z" fill="white"/>
</clipPath>
</defs>
</svg>
