<svg width="32" height="32" viewBox="0 0 32 32" fill="none" xmlns="http://www.w3.org/2000/svg">
<g clip-path="url(#clip0_1218_2209)">
<path d="M21.943 28H10.526C9.37004 28 8.43188 27.1592 8.43188 26.125C8.43188 25.0908 9.37842 24.25 10.526 24.25H21.9514C23.1074 24.25 24.0455 25.0908 24.0455 26.125C24.0455 27.1592 23.099 28 21.9514 28H21.943Z" fill="#7195AA"/>
<path d="M23.9007 24.7958C23.9007 25.2897 23.5736 25.7418 23.0787 25.9343C21.7701 26.445 20.3944 26.7045 18.9433 26.7045C13.9438 26.7045 10.966 24.193 10.0097 19.1699H9.31349C8.56694 19.1699 7.95459 18.6173 7.95459 17.9392V17.9057C7.95459 17.2276 8.55855 16.675 9.31349 16.675H9.69097C9.64903 16.3904 9.62386 16.0388 9.62386 15.6202C9.62386 15.2016 9.65741 14.6993 9.72452 14.1467H9.31349C8.56694 14.1467 7.95459 13.5942 7.95459 12.9161C7.95459 12.2379 8.55855 11.6854 9.31349 11.6854H10.0936C10.6892 9.28266 11.8216 7.40736 13.4909 6.05111C15.1601 4.69487 17.1901 4 19.5724 4C20.8306 4 21.9882 4.17581 23.0368 4.51906C23.5652 4.69487 23.9091 5.16369 23.9091 5.67438V5.9339C23.9091 6.76272 23.0116 7.38224 22.1476 7.11434C21.3759 6.87156 20.5622 6.74598 19.6982 6.74598C18.3477 6.74598 17.1566 7.18969 16.108 8.08548C15.0595 8.98127 14.3297 10.1784 13.9187 11.677H20.4028C21.1494 11.677 21.7617 12.2296 21.7617 12.9077C21.7617 13.5858 21.1578 14.1383 20.4028 14.1383H13.4657C13.3734 15.0341 13.3734 15.8797 13.4489 16.6667H20.386C21.1326 16.6667 21.745 17.2192 21.745 17.8973V17.9308C21.745 18.6089 21.141 19.1615 20.386 19.1615H13.818C14.5897 22.3679 16.4855 23.9753 19.4969 23.9753C20.3189 23.9753 21.1662 23.8246 22.0302 23.5149C22.8942 23.2051 23.8924 23.7828 23.8924 24.6534V24.7874L23.9007 24.7958Z" fill="#132E49"/>
</g>
<defs>
<clipPath id="clip0_1218_2209">
<path d="M0 4C0 1.79086 1.79086 0 4 0H28C30.2091 0 32 1.79086 32 4V28C32 30.2091 30.2091 32 28 32H4C1.79086 32 0 30.2091 0 28V4Z" fill="white"/>
</clipPath>
</defs>
</svg>
