<svg width="32" height="32" viewBox="0 0 32 32" fill="none" xmlns="http://www.w3.org/2000/svg">
<g clip-path="url(#clip0_1218_2136)">
<path d="M23.1808 11.6352V23.7928C23.1808 24.4054 22.9696 24.9644 22.6268 25.3674C22.2839 25.7736 21.8143 26.0238 21.2927 26.0238H11.384C10.1425 26.0238 9.12695 24.8214 9.12695 23.3541V11.6352C9.12695 11.0226 9.33819 10.4637 9.68105 10.0591C10.0239 9.65607 10.4935 9.40259 11.0151 9.40259H21.2927C21.8127 9.40259 22.2823 9.65445 22.6268 10.0591C22.9696 10.4653 23.1808 11.0226 23.1808 11.6352Z" fill="#7195AA"/>
<path d="M28.1499 12.8978C28.1499 14.9338 19.3055 19.4202 16.1532 19.4202C13.8441 19.4202 4.1499 14.5341 4.1499 12.7093C4.1499 10.462 14.2813 6 16.1532 6C18.7823 6 28.1499 11.0925 28.1499 12.8978Z" fill="#132E49"/>
<path d="M26.1837 13.083C26.1837 13.2114 26.1642 13.3333 26.1252 13.4454C26.1252 13.4454 26.1252 13.4487 26.1252 13.4503C26.1025 13.5201 26.0732 13.5868 26.0391 13.6469C25.3891 14.8835 25.7823 17.9675 25.9188 18.9652C25.9188 18.9685 25.9188 18.9701 25.9188 18.9734C26.0115 19.4982 26.0651 20.1482 26.0651 20.8518C26.0651 22.5856 25.7352 23.9927 25.3306 23.9927C24.926 23.9927 24.5962 22.5856 24.5962 20.8518C24.5962 20.0604 24.6644 19.339 24.7781 18.7881V18.7849C24.7928 18.6581 25.2786 14.461 24.8269 13.8955C24.8269 13.8955 24.7213 13.7915 24.6969 13.7574C24.5588 13.5786 24.4775 13.3414 24.4775 13.083C24.4775 12.5257 24.8594 12.074 25.3306 12.074C25.8018 12.074 26.1837 12.5257 26.1837 13.083Z" fill="#EA8B49"/>
</g>
<defs>
<clipPath id="clip0_1218_2136">
<path d="M0 4C0 1.79086 1.79086 0 4 0H28C30.2091 0 32 1.79086 32 4V28C32 30.2091 30.2091 32 28 32H4C1.79086 32 0 30.2091 0 28V4Z" fill="white"/>
</clipPath>
</defs>
</svg>
